<?xml version="1.0" encoding="UTF-8"?>
<svg xmlns="http://www.w3.org/2000/svg" version="1.1" xmlns:xlink="http://www.w3.org/1999/xlink" viewBox="0 0 264.6 180.8">
  <defs>
    <style>
      .cls-1 {
        fill: #3e4562;
      }

      .cls-2 {
        fill: url(#linear-gradient-2);
      }

      .cls-3 {
        fill: #bf5e27;
      }

      .cls-4 {
        fill: none;
        stroke: #1a1d63;
        stroke-linecap: round;
        stroke-linejoin: round;
        stroke-width: 2.9px;
      }

      .cls-5 {
        fill: #ba1212;
      }

      .cls-6 {
        fill: #fff;
      }

      .cls-7 {
        fill: url(#linear-gradient-4);
      }

      .cls-8 {
        fill: #3d0574;
        opacity: .3;
      }

      .cls-8, .cls-9, .cls-10, .cls-11, .cls-12, .cls-13 {
        isolation: isolate;
      }

      .cls-14 {
        fill: url(#linear-gradient-3);
      }

      .cls-15 {
        fill: #f2f2f2;
      }

      .cls-16 {
        fill: url(#linear-gradient-5);
      }

      .cls-17 {
        fill: #e77e23;
      }

      .cls-18 {
        fill: #ffc998;
      }

      .cls-9 {
        opacity: .5;
      }

      .cls-9, .cls-19, .cls-10, .cls-11, .cls-12 {
        fill: #1a1d63;
      }

      .cls-10 {
        opacity: .2;
      }

      .cls-20 {
        fill: url(#linear-gradient-6);
      }

      .cls-11 {
        opacity: .2;
      }

      .cls-21 {
        fill: #b3b3b3;
      }

      .cls-22 {
        fill: #f42121;
      }

      .cls-23 {
        fill: url(#linear-gradient);
      }

      .cls-12 {
        opacity: .3;
      }

      .cls-24 {
        fill: #8c6239;
      }

      .cls-13 {
        fill: #3ad4ff;
        opacity: .8;
      }

      .cls-25 {
        fill: #e6e6e6;
      }
    </style>
    <linearGradient id="linear-gradient" x1="111" y1="278.3" x2="118.2" y2="251.1" gradientTransform="translate(0 -213.3)" gradientUnits="userSpaceOnUse">
      <stop offset="0" stop-color="#000"/>
      <stop offset="1" stop-color="#fff"/>
    </linearGradient>
    <linearGradient id="linear-gradient-2" x1="111" y1="278.3" x2="118.2" y2="251.1" gradientTransform="translate(0 -213.3)" gradientUnits="userSpaceOnUse">
      <stop offset="0" stop-color="#fff"/>
      <stop offset="1" stop-color="#fff"/>
    </linearGradient>
    <linearGradient id="linear-gradient-3" x1="79.7" y1="282" x2="88.5" y2="249.1" gradientTransform="translate(0 -213.3)" gradientUnits="userSpaceOnUse">
      <stop offset="0" stop-color="#000"/>
      <stop offset="1" stop-color="#fff"/>
    </linearGradient>
    <linearGradient id="linear-gradient-4" x1="79.7" y1="282" x2="88.5" y2="249.1" gradientTransform="translate(0 -213.3)" gradientUnits="userSpaceOnUse">
      <stop offset="0" stop-color="#fff"/>
      <stop offset="1" stop-color="#fff"/>
    </linearGradient>
    <linearGradient id="linear-gradient-5" x1="125.4" y1="280.9" x2="132.5" y2="254.5" gradientTransform="translate(0 -213.3)" gradientUnits="userSpaceOnUse">
      <stop offset="0" stop-color="#000"/>
      <stop offset="1" stop-color="#fff"/>
    </linearGradient>
    <linearGradient id="linear-gradient-6" x1="125.4" y1="280.9" x2="132.5" y2="254.5" gradientTransform="translate(0 -213.3)" gradientUnits="userSpaceOnUse">
      <stop offset="0" stop-color="#fff"/>
      <stop offset="1" stop-color="#fff"/>
    </linearGradient>
  </defs>
  <!-- Generator: Adobe Illustrator 28.6.0, SVG Export Plug-In . SVG Version: 1.2.0 Build 709)  -->
  <g>
    <g id="Layer_2">
      <g id="Layer_1-2">
        <g id="OBJECT">
          <g id="object">
            <g id="table">
              <path class="cls-17" d="M240,179.3H13.2c-2,0-3.6-1.6-3.6-3.6v-4.8c0-2,1.6-3.6,3.6-3.6h226.8c2,0,3.6,1.6,3.6,3.6v4.8c0,2-1.6,3.6-3.6,3.6Z"/>
              <path class="cls-3" d="M243.7,170.9v4.8c0,2-1.6,3.6-3.6,3.6H13.2c-2,0-3.6-1.6-3.6-3.6v-1.7c222.4,3.4,196.3-1.4,228-6.7h2.5c2,0,3.6,1.6,3.6,3.6h0Z"/>
              <path class="cls-24" d="M243.7,170.9v.2c-.5-.2-1-.3-1.5-.3H11c-.5,0-1,.1-1.5.3v-.2c0-2,1.6-3.6,3.6-3.6h226.8c2,0,3.6,1.6,3.6,3.6h0Z"/>
              <path class="cls-18" d="M243.7,170.9v.2c-.5-.2-1-.3-1.5-.3H11c-.5,0-1,.1-1.5.3v-.2c0-2,1.6-3.6,3.6-3.6h226.8c2,0,3.6,1.6,3.6,3.6h0Z"/>
              <path id="outline" class="cls-4" d="M240,179.3H13.2c-2,0-3.6-1.6-3.6-3.6v-4.8c0-2,1.6-3.6,3.6-3.6h226.8c2,0,3.6,1.6,3.6,3.6v4.8c0,2-1.6,3.6-3.6,3.6Z"/>
            </g>
            <g id="ninja">
              <g id="sword">
                <g id="sword-2">
                  <g>
                    <path class="cls-25" d="M185.1,108.2c.3.3.2.9-.1,1.1l-31.3,26.2c.6,3.2.6,6.1-.1,8.9-.2.9-1.4,1.1-1.9.4-4.4-5-6.3-6.2-8.2-6.1-2.1.2-3.9,2-4,4.2,0,1,.3,2,1.4,3.3l.4.5c.4.5.3,1.1-.1,1.5l-3.4,2.8c-.5.4-1.1.3-1.5-.1l-.4-.5-19.9,16.7h-20.4l49.5-41.6h0c-.5-.6-.4-1.4.2-1.9l30.4-25.5c.3-.3.9-.2,1.1.1,2.3-1.4,4.6-2.2,6.9-2.2,1,0,1.9.6,2.2,1.5,1.1,3.3.5,6.7-1.1,10.2l.3.3h0Z"/>
                    <path class="cls-6" d="M178.2,101.3c1.8-1.5,5.3-3.1,7.5-4.2-.4-.6-1.1-1-1.9-1-2.3,0-4.6.8-6.9,2.2-.3-.3-.8-.4-1.1-.1l2.5,3h0Z"/>
                    <polygon class="cls-6" points="148.1 129.3 102.8 167.3 95.5 167.3 145.1 125.7 148.1 129.3"/>
                    <path class="cls-4" d="M184.8,107.9c1.6-3.5,2.2-6.9,1.1-10.2-.3-.9-1.2-1.5-2.2-1.5-2.3,0-4.6.8-6.9,2.2-.2-.2-.4-.3-.6-.3s-.4,0-.5.2l-30.4,25.5c-.6.5-.6,1.3-.2,1.9l-49.6,41.6h20.4l19.9-16.7.4.5c.4.5,1.1.5,1.5.1l3.4-2.8c.5-.4.5-1.1.1-1.5l-.4-.5c-1.1-1.3-1.4-2.3-1.4-3.3,0-2.2,1.8-4,4-4.2,1.9-.2,3.8,1,8.2,6.1.6.7,1.7.4,1.9-.4.7-2.8.7-5.7.1-8.9l31.3-26.2c.3-.3.4-.8.1-1.1l-.3-.3h0ZM184.8,107.9c1.6-3.5,2.2-6.9,1.1-10.2-.3-.9-1.2-1.5-2.2-1.5-2.3,0-4.6.8-6.9,2.2-.2-.2-.4-.3-.6-.3s-.4,0-.5.2l-30.4,25.5c-.6.5-.6,1.3-.2,1.9l-49.6,41.6h20.4l19.9-16.7.4.5c.4.5,1.1.5,1.5.1l3.4-2.8c.5-.4.5-1.1.1-1.5l-.4-.5c-1.1-1.3-1.4-2.3-1.4-3.3,0-2.2,1.8-4,4-4.2,1.9-.2,3.8,1,8.2,6.1.6.7,1.7.4,1.9-.4.7-2.8.7-5.7.1-8.9l31.3-26.2c.3-.3.4-.8.1-1.1l-.3-.3h0Z"/>
                    <g>
                      <path class="cls-10" d="M184.1,99c.6.7.5,1.6-.2,2.2-.7.6-1.6.5-2.2-.2s-.5-1.6.2-2.2c.7-.6,1.6-.5,2.2.2Z"/>
                      <path class="cls-19" d="M183.6,99.5c.3.4.3.9-.1,1.2s-.9.3-1.2-.1-.3-.9.1-1.2.9-.3,1.2.1Z"/>
                    </g>
                  </g>
                  <g>
                    <path class="cls-5" d="M145.3,123.8c-.6.5-.6,1.3-.2,1.9h0l8.6,9.9,31.3-26.2c.3-.3.4-.8.1-1.1l-8.3-9.8c-.3-.3-.8-.4-1.1-.1l-30.4,25.5h0Z"/>
                    <path class="cls-22" d="M146.9,127.9l.4.4,3.7,4.1,31.9-26.8-3.9-4.6-32.1,26.9h0Z"/>
                    <path class="cls-11" d="M185.1,108.2l-.3-.4c-13.3,8.2-21.8,8.1-28.7,6.9l-10.8,9.1c-.6.5-.6,1.3-.2,1.9l8.6,9.9,31.3-26.2c.3-.3.4-.8.1-1.1h0Z"/>
                    <path class="cls-4" d="M145.3,123.8c-.6.5-.6,1.3-.2,1.9h0l8.6,9.9,31.3-26.2c.3-.3.4-.8.1-1.1l-8.3-9.8c-.3-.3-.8-.4-1.1-.1l-30.4,25.5h0Z"/>
                    <g>
                      <path class="cls-15" d="M154.7,125.8l-.3,2.9c0,.3-.3.6-.7.6l-2.9-.3c-.3,0-.6-.3-.6-.7l.3-2.9c0-.3.3-.6.7-.6l2.9.3c.3,0,.6.3.6.7h0Z"/>
                      <path class="cls-15" d="M159.7,121.6l-.3,2.9c0,.3-.3.6-.7.6l-2.9-.3c-.3,0-.6-.3-.6-.7l.3-2.9c0-.3.3-.6.7-.6l2.9.3c.3,0,.6.3.6.7Z"/>
                      <path class="cls-15" d="M164.7,117.4l-.3,2.9c0,.3-.3.6-.7.6l-2.9-.3c-.3,0-.6-.3-.6-.7l.3-2.9c0-.3.3-.6.7-.6l2.9.3c.3,0,.6.3.6.7Z"/>
                      <path class="cls-15" d="M169.8,113.2l-.3,2.9c0,.3-.3.6-.7.6l-2.9-.3c-.3,0-.6-.3-.6-.7l.3-2.9c0-.3.3-.6.7-.6l2.9.3c.3,0,.6.3.6.7Z"/>
                      <path class="cls-15" d="M174.8,109l-.3,2.9c0,.3-.3.6-.7.6l-2.9-.3c-.3,0-.6-.3-.6-.7l.3-2.9c0-.3.3-.6.7-.6l2.9.3c.3,0,.6.3.6.7Z"/>
                      <path class="cls-15" d="M179.8,104.8l-.3,2.9c0,.3-.3.6-.7.6l-2.9-.3c-.3,0-.6-.3-.6-.7l.3-2.9c0-.3.3-.6.7-.6l2.9.3c.3,0,.6.3.6.7Z"/>
                    </g>
                  </g>
                </g>
                <g id="sword-3">
                  <g>
                    <path class="cls-25" d="M20.9,108.2c-.3.3-.2.9,0,1.1l31.3,26.2c-.6,3.2-.6,6.1.1,8.9.2.9,1.4,1.1,1.9.4,4.4-5,6.3-6.2,8.2-6.1,2.1.2,3.9,2,4,4.2,0,1-.3,2-1.4,3.3l-.4.5c-.4.5-.3,1.1.1,1.5l3.4,2.8c.5.4,1.1.3,1.5-.1l.4-.5,19.9,16.7h20.4l-49.5-41.6h0c.5-.6.4-1.4-.2-1.9l-30.4-25.5c-.3-.3-.9-.2-1.1.1-2.3-1.4-4.6-2.2-6.9-2.2-1,0-1.9.6-2.2,1.5-1.1,3.3-.5,6.7,1.1,10.2l-.3.3h0Z"/>
                    <path class="cls-6" d="M27.8,101.3c-1.8-1.5-5.3-3.1-7.5-4.2.4-.6,1.1-1,1.9-1,2.3,0,4.6.8,6.9,2.2.3-.3.8-.4,1.1-.1l-2.5,3h0Z"/>
                    <polygon class="cls-6" points="57.9 129.3 103.2 167.3 110.4 167.3 60.9 125.7 57.9 129.3"/>
                    <path class="cls-4" d="M20.9,108.2c-.3.3-.2.9,0,1.1l31.3,26.2c-.6,3.2-.6,6.1.1,8.9.2.9,1.4,1.1,1.9.4,4.4-5,6.3-6.2,8.2-6.1,2.1.2,3.9,2,4,4.2,0,1-.3,2-1.4,3.3l-.4.5c-.4.5-.3,1.1.1,1.5l3.4,2.8c.5.4,1.1.3,1.5-.1l.4-.5,19.9,16.7h20.4l-49.6-41.6c.5-.6.4-1.4-.2-1.9l-30.4-25.5c-.2-.1-.3-.2-.5-.2s-.5,0-.6.3c-2.3-1.4-4.6-2.2-6.9-2.2-1,0-1.9.6-2.2,1.5-1.1,3.3-.5,6.7,1.1,10.2l-.3.3h0ZM20.9,108.2c-.3.3-.2.9,0,1.1l31.3,26.2c-.6,3.2-.6,6.1.1,8.9.2.9,1.4,1.1,1.9.4,4.4-5,6.3-6.2,8.2-6.1,2.1.2,3.9,2,4,4.2,0,1-.3,2-1.4,3.3l-.4.5c-.4.5-.3,1.1.1,1.5l3.4,2.8c.5.4,1.1.3,1.5-.1l.4-.5,19.9,16.7h20.4l-49.6-41.6c.5-.6.4-1.4-.2-1.9l-30.4-25.5c-.2-.1-.3-.2-.5-.2s-.5,0-.6.3c-2.3-1.4-4.6-2.2-6.9-2.2-1,0-1.9.6-2.2,1.5-1.1,3.3-.5,6.7,1.1,10.2l-.3.3h0Z"/>
                    <g>
                      <path class="cls-10" d="M21.9,99c-.6.7-.5,1.6.2,2.2.7.6,1.6.5,2.2-.2s.5-1.6-.2-2.2c-.7-.6-1.6-.5-2.2.2Z"/>
                      <path class="cls-19" d="M22.4,99.5c-.3.4-.3.9.1,1.2s.9.3,1.2-.1.3-.9-.1-1.2-.9-.3-1.2.1Z"/>
                    </g>
                  </g>
                  <g>
                    <path class="cls-5" d="M30.2,98.3c-.3-.3-.9-.2-1.1.1l-8.3,9.8c-.3.3-.2.9,0,1.1l31.3,26.2,8.6-9.9h0c.5-.6.4-1.4-.2-1.9l-30.4-25.5h0Z"/>
                    <path class="cls-22" d="M26.9,101l-3.9,4.6,31.9,26.8,3.7-4.1.4-.4-32.1-26.9h0Z"/>
                    <path class="cls-11" d="M21,109.3l31.3,26.2,8.6-9.9c.5-.6.4-1.4-.2-1.9l-10.8-9.1c-6.8,1.2-15.4,1.3-28.7-6.9l-.3.4c-.3.3-.2.9,0,1.1h0Z"/>
                    <path class="cls-4" d="M30.2,98.3c-.3-.3-.9-.2-1.1.1l-8.3,9.8c-.3.3-.2.9,0,1.1l31.3,26.2,8.6-9.9h0c.5-.6.4-1.4-.2-1.9l-30.4-25.5h0Z"/>
                    <g>
                      <path class="cls-15" d="M51.2,125.8l.3,2.9c0,.3.3.6.7.6l2.9-.3c.3,0,.6-.3.6-.7l-.3-2.9c0-.3-.3-.6-.7-.6l-2.9.3c-.3,0-.6.3-.6.7h0Z"/>
                      <path class="cls-15" d="M46.2,121.6l.3,2.9c0,.3.3.6.7.6l2.9-.3c.3,0,.6-.3.6-.7l-.3-2.9c0-.3-.3-.6-.7-.6l-2.9.3c-.3,0-.6.3-.6.7Z"/>
                      <path class="cls-15" d="M41.2,117.4l.3,2.9c0,.3.3.6.7.6l2.9-.3c.3,0,.6-.3.6-.7l-.3-2.9c0-.3-.3-.6-.7-.6l-2.9.3c-.3,0-.6.3-.6.7h0Z"/>
                      <path class="cls-15" d="M36.2,113.2l.3,2.9c0,.3.3.6.7.6l2.9-.3c.3,0,.6-.3.6-.7l-.3-2.9c0-.3-.3-.6-.7-.6l-2.9.3c-.3,0-.6.3-.6.7Z"/>
                      <path class="cls-15" d="M31.2,109l.3,2.9c0,.3.3.6.7.6l2.9-.3c.3,0,.6-.3.6-.7l-.3-2.9c0-.3-.3-.6-.7-.6l-2.9.3c-.3,0-.6.3-.6.7Z"/>
                      <path class="cls-15" d="M26.2,104.8l.3,2.9c0,.3.3.6.7.6l2.9-.3c.3,0,.6-.3.6-.7l-.3-2.9c0-.3-.3-.6-.7-.6l-2.9.3c-.3,0-.6.3-.6.7Z"/>
                    </g>
                  </g>
                </g>
              </g>
              <g id="cat">
                <g id="body">
                  <path id="base" class="cls-1" d="M175.3,167.3h-23.8c0-.1,0-.3,0-.4,0-.2,0-.3,0-.5,0-.2,0-.4-.1-.6,0-.2,0-.3-.1-.5,0-.2,0-.4-.1-.6,0-.2,0-.3-.1-.5,0-.2-.1-.4-.2-.6,0-.1,0-.3-.1-.4,0-.2-.1-.4-.2-.6,0-.1,0-.3-.1-.4,0-.2-.1-.4-.2-.6,0-.1,0-.3-.1-.4,0-.2-.1-.4-.2-.7,0-.1,0-.2-.1-.3,0-.2-.2-.5-.3-.7,0,0,0-.2,0-.3-.1-.3-.2-.6-.3-.9,0,0,0,0,0-.1-.3-.7-.5-1.3-.8-1.9,0,3.7,0,7.3-.2,11.1H58c-.1-3.7-.2-7.4-.2-11.1-.3.6-.5,1.3-.8,1.9,0,0,0,0,0,.1-.1.3-.2.6-.3.9,0,0,0,.2,0,.3,0,.2-.2.5-.3.7,0,.1,0,.2-.1.3,0,.2-.1.4-.2.7,0,.1,0,.3-.1.4,0,.2-.1.4-.2.6,0,.1,0,.3-.1.4,0,.2-.1.4-.2.6,0,.1,0,.3-.1.4,0,.2-.1.4-.2.6,0,.2,0,.3-.1.5,0,.2,0,.4-.1.6,0,.2,0,.3-.1.5,0,.2,0,.4-.1.6,0,.2,0,.3,0,.5,0,.1,0,.3,0,.4h-23.8c-.6-9.2.9-18.2,5.4-27.8,2.5-5.3,5.7-10.2,9.5-14.6.6-.7,1.2-1.4,1.8-2.1,4.4-4.8,8.6-8.4,12.4-11.1,8-5.5,14.8-7.3,21-8.6h44.2s0,0,0,0h0c6.2,1.3,13.1,3.1,21,8.6,3.9,2.7,8,6.3,12.4,11.1.6.7,1.2,1.4,1.8,2.1,3.8,4.4,7,9.3,9.5,14.6,4.5,9.5,6,18.5,5.4,27.8h0Z"/>
                  <g id="shadow">
                    <path class="cls-9" d="M144.6,110.7c-27.7,13.9-55.5,13.9-83.2,0,7.3-4.7,13.7-6.4,19.5-7.6h44.2c5.8,1.2,12.2,2.8,19.5,7.6h0Z"/>
                    <g>
                      <path class="cls-9" d="M147.9,167.3h-3.1c-.7-9.2-2.5-17.1-5.4-22.2,3.6,3,6.7,7,9.1,12.3.3,0,0,4.4-.6,9.9h0Z"/>
                      <path class="cls-9" d="M61.1,167.3h-3.1c-.6-5.5-.9-9.9-.6-9.9,2.4-5.4,5.5-9.4,9.1-12.3-2.9,5.1-4.6,13-5.4,22.2h0Z"/>
                    </g>
                  </g>
                  <g id="outline-2">
                    <path class="cls-4" d="M175.3,167.3h-23.8c-.7-4.1-1.9-7.8-3.3-11.1,0,3.7,0,7.3-.2,11.1H58c-.1-3.7-.2-7.4-.2-11.1-1.5,3.3-2.6,7-3.3,11.1h-23.8c-.6-9.2.9-18.2,5.4-27.8,2.9-6.1,6.8-11.7,11.3-16.7,13.6-14.8,24.3-17.8,33.5-19.7h44.2c9.2,1.9,19.9,4.9,33.5,19.7,4.6,5,8.5,10.6,11.3,16.7,4.5,9.5,6,18.5,5.4,27.8Z"/>
                    <g>
                      <path class="cls-4" d="M125.1,103.1c9.2,1.9,19.9,4.9,33.5,19.7,4.6,5,8.5,10.6,11.3,16.7,4.5,9.5,6,18.5,5.4,27.8"/>
                      <path class="cls-4" d="M140.8,144.6c4.9,5.8,9,13.1,10.7,22.7"/>
                      <path class="cls-4" d="M54.5,167.3c1.6-9.5,5.8-16.8,10.7-22.7"/>
                      <path class="cls-4" d="M30.7,167.3c-.6-9.2.9-18.2,5.4-27.8,2.9-6.1,6.8-11.7,11.3-16.7,13.6-14.8,24.3-17.8,33.5-19.7"/>
                    </g>
                  </g>
                </g>
                <g id="head">
                  <path id="base-2" class="cls-6" d="M145.5,53.3c0,4.4-1.8,8.4-4.8,11.4-2.9,2.9-7,4.8-11.5,4.8h-1.1c-6.2,0-12.3-1.3-18-3.5-2.5-1-5.2-1.5-7.8-1.5s-5.3.5-7.8,1.5c-5.8,2.2-11.9,3.5-18,3.5h-1.1c-4.5,0-8.5-1.8-11.5-4.8-2.9-2.9-4.7-6.9-4.8-11.4,0-8.1,5.7-14.1,13.8-15.9,1.3-.3,2.6-.4,4-.5,8.5-.9,17-1.4,25.5-1.4s17,.5,25.5,1.4c1.3,0,2.7.2,4,.5,8,1.8,13.8,7.8,13.8,15.9h0Z"/>
                  <path id="blue" class="cls-13" d="M156,56.9c-41-3.6-50.7-32.3-53-47,3.6,0,7.1.5,10.6,1.5,16.5,4.3,30.1,12.3,37.6,28.2,2,4.1,3.2,8.6,4,13.1.3,1.5.5,2.9.8,4.2h0Z"/>
                  <path id="mask" class="cls-1" d="M172.8,15.7c0-.5-.2-1.1-.4-1.6,0,0,0,0,0,0,0-.2-.1-.3-.2-.5,0,0,0,0,0,0,0-.2-.1-.3-.2-.4,0,0,0,0,0,0,0-.1-.1-.2-.2-.3,0,0,0,0,0-.1,0-.1-.2-.2-.2-.3,0,0,0-.1-.1-.2,0-.1-.2-.2-.2-.3,0,0-.1-.1-.2-.2s-.1-.1-.2-.2c0,0-.2-.2-.3-.3,0,0-.1,0-.2-.1,0,0-.1-.1-.2-.2,0,0-.2-.1-.3-.2,0,0-.2-.1-.2-.1,0,0-.1,0-.2-.1-.1,0-.2-.1-.4-.2,0,0-.1,0-.2,0,0,0-.2,0-.3-.1,0,0-.2,0-.3-.1,0,0-.1,0-.2,0-.1,0-.3,0-.4-.1,0,0-.1,0-.2,0-.1,0-.2,0-.4,0,0,0,0,0-.1,0-.2,0-.3,0-.5,0,0,0,0,0,0,0-.4,0-.8,0-1.2,0-11,.3-21.4,3-30.9,10.5-2-1.3-4-2.4-6.2-3.4-.1,0-.2-.1-.3-.1,0,0-.1,0-.2,0-.4-.2-.7-.3-1.1-.5-.1,0-.3-.1-.4-.2-.5-.2-1-.4-1.5-.6,0,0,0,0,0,0-.5-.2-1.1-.4-1.6-.6,0,0-.2,0-.3-.1-.4-.2-.9-.3-1.3-.5-.2,0-.3-.1-.5-.2-.4-.1-.8-.3-1.2-.4-.2,0-.3-.1-.5-.2-.4-.1-.8-.3-1.2-.4-.2,0-.3,0-.5-.1-.5-.1-.9-.3-1.4-.4,0,0-.2,0-.3,0-.6-.2-1.2-.3-1.7-.5-1.8-.5-3.6-.8-5.4-1.1-2-.3-3.9-.4-5.9-.5-3.8,0-7.6.6-11.3,1.5-4.8,1.3-9.4,2.9-13.7,4.9-2.2,1.1-4.4,2.3-6.4,3.6-9.5-7.6-20-10.3-31-10.6-.4,0-.8,0-1.2,0,0,0,0,0,0,0-.2,0-.3,0-.5,0,0,0,0,0-.1,0-.1,0-.2,0-.4,0,0,0-.1,0-.2,0-.1,0-.3,0-.4.1,0,0-.1,0-.2,0,0,0-.2,0-.3.1,0,0-.2,0-.3.1,0,0-.1,0-.2,0-.1,0-.2.1-.4.2,0,0-.1,0-.2.1,0,0-.2,0-.2.1,0,0-.2.1-.3.2,0,0-.1.1-.2.2,0,0-.1,0-.2.1,0,0-.2.2-.3.3,0,0-.1.1-.2.2s-.1.1-.2.2c0,0-.2.2-.2.3,0,0,0,.1-.1.2,0,.1-.2.2-.2.3,0,0,0,0,0,.1,0,.1-.1.2-.2.3h0c0,.2-.2.4-.2.5,0,0,0,0,0,0,0,.2-.1.3-.2.5,0,0,0,0,0,0-.2.5-.3,1-.4,1.6-1.8,14.9,2.9,27.7,16.8,37.5-5.8,23.1-4.7,38.7,3.4,47.2,11.8,10.5,27.6,16.1,49.6,14.2,22,1.8,37.7-3.7,49.6-14.2,8.1-8.4,9.2-24.1,3.4-47.2,13.9-9.7,18.6-22.5,16.8-37.5h0ZM141.4,64.8c-2.9,2.9-7,4.8-11.5,4.8h-1.1c-6.2,0-12.3-1.3-18-3.5-2.5-1-5.2-1.5-7.8-1.5s-5.3.5-7.8,1.5c-5.8,2.2-11.9,3.5-18,3.5h-1.1c-4.5,0-8.5-1.8-11.5-4.8-2.9-2.9-4.7-6.9-4.8-11.4,0-8.1,5.7-14.1,13.8-15.9,1.3-.3,2.6-.4,4-.5,8.5-.9,17-1.4,25.5-1.4s17,.5,25.5,1.4c1.3,0,2.7.2,4,.5,8,1.8,13.8,7.8,13.8,15.9,0,4.4-1.8,8.4-4.8,11.4h0Z"/>
                  <g id="face">
                    <g id="eyebrow">
                      <path class="cls-19" d="M66.7,49.2c.6-.8,1.2-1.6,1.9-2.3.7-.7,1.5-1.3,2.4-1.9,1.7-1.1,3.7-1.9,5.9-2,1.1,0,2.2,0,3.2.3,1,.3,2,.7,2.9,1.3.9.6,1.7,1.3,2.3,2,.7.8,1.2,1.6,1.7,2.5-.9-.5-1.7-1-2.5-1.5-.8-.5-1.6-.9-2.5-1.2-1.7-.6-3.3-.9-5-.8-1.7.1-3.4.6-5.1,1.2-1.7.6-3.4,1.5-5.3,2.3h0Z"/>
                      <path class="cls-19" d="M139.2,49.2c-1.8-.8-3.5-1.6-5.3-2.3-1.7-.6-3.4-1.1-5.1-1.2-1.7,0-3.4.2-5,.8-.8.3-1.6.7-2.5,1.2-.8.5-1.6,1-2.5,1.5.4-.9,1-1.7,1.7-2.5.7-.8,1.4-1.5,2.3-2,.9-.6,1.9-1,2.9-1.3,1-.3,2.1-.4,3.2-.3,2.2.1,4.2.9,5.9,2,.9.6,1.7,1.2,2.4,1.9.7.7,1.4,1.4,1.9,2.3h0Z"/>
                    </g>
                    <g id="eye">
                      <g id="left">
                        <ellipse class="cls-19" cx="128.9" cy="54.5" rx="8.3" ry="9.7"/>
                        <ellipse class="cls-6" cx="126.5" cy="52.4" rx="2.7" ry="3.2"/>
                        <circle class="cls-6" cx="132.1" cy="57.5" r="1.9"/>
                      </g>
                      <g id="right">
                        <ellipse class="cls-19" cx="77" cy="54.5" rx="8.3" ry="9.7"/>
                        <ellipse class="cls-6" cx="79.4" cy="52.4" rx="2.7" ry="3.2"/>
                        <circle class="cls-6" cx="73.8" cy="57.5" r="1.9"/>
                      </g>
                    </g>
                  </g>
                  <g id="shadow-2">
                    <path class="cls-9" d="M172.4,29.5c-1.8,9.1-7,17-16.4,23.6,0-.1,0-.2,0-.3l-1.9-6.1s0,0,0,0c8.2-1.7,13.7-7.1,18.4-17.1h0Z"/>
                    <path class="cls-9" d="M33.6,29.5c1.8,9.1,7,17,16.4,23.6,0-.1,0-.2,0-.3l1.9-6.1s0,0,0,0c-8.2-1.7-13.7-7.1-18.4-17.1h0Z"/>
                    <path class="cls-9" d="M146.1,52.4c-1.7-5.8-6.7-10-13.3-11.5-1.3-.3-2.7-.4-4-.5-8.6-.9-17.2-1.4-25.8-1.4s-17.2.5-25.8,1.4c-1.3,0-2.7.2-4,.5-6.6,1.5-11.7,5.7-13.3,11.5.4-7.6,6-13.1,13.7-14.9,1.3-.3,2.6-.4,4-.5,8.5-.9,17-1.4,25.5-1.4s17,.5,25.5,1.4c1.3,0,2.7.2,4,.5,7.7,1.7,13.3,7.3,13.7,14.9h0Z"/>
                    <path class="cls-9" d="M152.5,100.3c-11.8,10.5-27.6,16.1-49.6,14.2-22,1.8-37.7-3.7-49.6-14.2-5.1-5.3-7.4-13.5-7-24.6.4,8.6,2.7,15.2,7,19.7,11.8,10.5,27.6,16.1,49.6,14.2,22,1.8,37.7-3.7,49.6-14.2,4.3-4.5,6.7-11.1,7-19.7.4,11.1-1.9,19.3-7,24.6h0Z"/>
                  </g>
                  <g id="outline-3">
                    <path class="cls-4" d="M172.8,15.7c0-.5-.2-1.1-.4-1.6,0,0,0,0,0,0,0-.2-.1-.3-.2-.5,0,0,0,0,0,0,0-.2-.1-.3-.2-.4,0,0,0,0,0,0,0-.1-.1-.2-.2-.3,0,0,0,0,0-.1,0-.1-.2-.2-.2-.3,0,0,0-.1-.1-.2,0-.1-.2-.2-.2-.3,0,0-.1-.1-.2-.2s-.1-.1-.2-.2c0,0-.2-.2-.3-.3,0,0-.1,0-.2-.1,0,0-.1-.1-.2-.2,0,0-.2-.1-.3-.2,0,0-.2-.1-.2-.1,0,0-.1,0-.2-.1-.1,0-.2-.1-.4-.2,0,0-.1,0-.2,0,0,0-.2,0-.3-.1,0,0-.2,0-.3-.1,0,0-.1,0-.2,0-.1,0-.3,0-.4-.1,0,0-.1,0-.2,0-.1,0-.2,0-.4,0,0,0,0,0-.1,0-.2,0-.3,0-.5,0,0,0,0,0,0,0-.4,0-.8,0-1.2,0-11,.3-21.4,3-30.9,10.5-2-1.3-4-2.4-6.2-3.4-.1,0-.2-.1-.3-.1,0,0-.1,0-.2,0-.4-.2-.7-.3-1.1-.5-.1,0-.3-.1-.4-.2-.5-.2-1-.4-1.5-.6,0,0,0,0,0,0-.5-.2-1.1-.4-1.6-.6,0,0-.2,0-.3-.1-.4-.2-.9-.3-1.3-.5-.2,0-.3-.1-.5-.2-.4-.1-.8-.3-1.2-.4-.2,0-.3-.1-.5-.2-.4-.1-.8-.3-1.2-.4-.2,0-.3,0-.5-.1-.5-.1-.9-.3-1.4-.4,0,0-.2,0-.3,0-.6-.2-1.2-.3-1.7-.5-1.8-.5-3.6-.8-5.4-1.1-2-.3-3.9-.4-5.9-.5-3.8,0-7.6.6-11.3,1.5-4.8,1.3-9.4,2.9-13.7,4.9-2.2,1.1-4.4,2.3-6.4,3.6-9.5-7.6-20-10.3-31-10.6-.4,0-.8,0-1.2,0,0,0,0,0,0,0-.2,0-.3,0-.5,0,0,0,0,0-.1,0-.1,0-.2,0-.4,0,0,0-.1,0-.2,0-.1,0-.3,0-.4.1,0,0-.1,0-.2,0,0,0-.2,0-.3.1,0,0-.2,0-.3.1,0,0-.1,0-.2,0-.1,0-.2.1-.4.2,0,0-.1,0-.2.1,0,0-.2,0-.2.1,0,0-.2.1-.3.2,0,0-.1.1-.2.2,0,0-.1,0-.2.1,0,0-.2.2-.3.3,0,0-.1.1-.2.2s-.1.1-.2.2c0,0-.2.2-.2.3,0,0,0,.1-.1.2,0,.1-.2.2-.2.3,0,0,0,0,0,.1,0,.1-.1.2-.2.3h0c0,.2-.2.4-.2.5,0,0,0,0,0,0,0,.2-.1.3-.2.5,0,0,0,0,0,0-.2.5-.3,1-.4,1.6-1.8,14.9,2.9,27.7,16.8,37.5-5.8,23.1-4.7,38.7,3.4,47.2,11.8,10.5,27.6,16.1,49.6,14.2,22,1.8,37.7-3.7,49.6-14.2,8.1-8.4,9.2-24.1,3.4-47.2,13.9-9.7,18.6-22.5,16.8-37.5h0ZM141.4,64.8c-2.9,2.9-7,4.8-11.5,4.8h-1.1c-6.2,0-12.3-1.3-18-3.5-2.5-1-5.2-1.5-7.8-1.5s-5.3.5-7.8,1.5c-5.8,2.2-11.9,3.5-18,3.5h-1.1c-4.5,0-8.5-1.8-11.5-4.8-2.9-2.9-4.7-6.9-4.8-11.4,0-8.1,5.7-14.1,13.8-15.9,1.3-.3,2.6-.4,4-.5,8.5-.9,17-1.4,25.5-1.4s17,.5,25.5,1.4c1.3,0,2.7.2,4,.5,8,1.8,13.8,7.8,13.8,15.9,0,4.4-1.8,8.4-4.8,11.4h0Z"/>
                    <path class="cls-4" d="M54.1,40.9c-.8,1.9-1.5,3.8-2.1,5.7l-1.9,6.1c-5.9,23.3-4.8,39,3.3,47.5,11.8,10.5,27.6,16.1,49.6,14.2,22,1.8,37.7-3.7,49.6-14.2,8.1-8.5,9.2-24.2,3.3-47.5l-1.9-6.1c-.6-2-1.3-3.9-2.1-5.7"/>
                    <path class="cls-4" d="M71.6,19.9c2-1.4,4.2-2.6,6.4-3.6,4.3-2,8.8-3.6,13.7-4.9,3.7-1,7.5-1.5,11.3-1.5,3.8,0,7.6.6,11.3,1.5,4.8,1.3,9.4,2.9,13.7,4.9,2.2,1.1,4.4,2.3,6.4,3.6"/>
                  </g>
                </g>
              </g>
              <g id="glasses">
                <path class="cls-11" d="M150.5,54h0c0,5.3-2.1,10.2-5.8,14-3.8,3.8-8.8,5.8-14.1,5.8h-1.1c-6.5,0-13.1-1.3-19.7-3.8-2.2-.8-4.5-1.3-6.8-1.3s-4.6.4-6.8,1.3c-6.5,2.5-13.2,3.8-19.7,3.8h-1.1c-5.3,0-10.3-2.1-14.1-5.8-3.7-3.7-5.8-8.7-5.8-14,0-9.6,6.5-17.2,16.7-19.5,1.4-.3,2.9-.5,4.5-.6,8.7-1,17.6-1.4,26.3-1.4s17.6.5,26.3,1.4c1.7,0,3.1.3,4.5.6,10.2,2.3,16.7,10,16.7,19.5h0Z"/>
                <g id="light">
                  <g id="SVGID">
                    <path class="cls-23" d="M128.7,40.6l-16.1,23.3h0c-.1,0-.3,0-.4-.1-3-1.1-6.1-1.7-9.2-1.7s-1.7,0-2.5.1l15.7-22.6c4.2.2,8.4.6,12.5,1h0s0,0,0,0Z"/>
                  </g>
                  <path class="cls-2" d="M128.7,40.6l-16.1,23.3h0c-.1,0-.3,0-.4-.1-3-1.1-6.1-1.7-9.2-1.7s-1.7,0-2.5.1l15.7-22.6c4.2.2,8.4.6,12.5,1h0s0,0,0,0Z"/>
                  <g id="SVGID-2">
                    <path class="cls-14" d="M101.3,39.2l-19.1,27.5c-1.9.2-3.8.4-5.7.4h-1.1c-3,0-5.8-1-8.2-2.8l16.9-24.3c5.7-.5,11.5-.7,17.2-.8h0Z"/>
                  </g>
                  <path class="cls-7" d="M101.3,39.2l-19.1,27.5c-1.9.2-3.8.4-5.7.4h-1.1c-3,0-5.8-1-8.2-2.8l16.9-24.3c5.7-.5,11.5-.7,17.2-.8h0Z"/>
                  <g id="SVGID-3">
                    <path class="cls-16" d="M139.6,44.6l-15.4,22.2c-2.1-.2-4.2-.6-6.3-1.2l16.6-23.9c2,.7,3.7,1.7,5.1,2.9Z"/>
                  </g>
                  <path class="cls-20" d="M139.6,44.6l-15.4,22.2c-2.1-.2-4.2-.6-6.3-1.2l16.6-23.9c2,.7,3.7,1.7,5.1,2.9Z"/>
                </g>
                <path id="base-3" class="cls-22" d="M130.6,73.8h-1.1c-6.5,0-13.1-1.3-19.7-3.8-2.2-.8-4.5-1.3-6.8-1.3s-4.6.4-6.8,1.3c-6.5,2.5-13.2,3.8-19.7,3.8h-1.1c-5.3,0-10.3-2.1-14.1-5.8-3.7-3.7-5.8-8.7-5.8-14,0-9.6,6.5-17.2,16.7-19.5,1.4-.3,2.9-.5,4.5-.6,8.7-1,17.6-1.4,26.3-1.4s17.6.5,26.3,1.4c1.7,0,3.1.3,4.5.6,10.2,2.3,16.7,10,16.7,19.5h0c0,5.3-2.1,10.2-5.8,14-3.8,3.8-8.8,5.8-14.1,5.8h0ZM103,62.1c3.2,0,6.3.6,9.2,1.7,5.8,2.2,11.6,3.4,17.3,3.4h1.1c3.5,0,6.9-1.4,9.4-3.9,2.5-2.5,3.9-5.8,3.9-9.3,0-6.4-4.4-11.4-11.5-13-1-.2-2.2-.4-3.5-.4h-.2c-8.5-1-17.2-1.4-25.7-1.4s-17.2.5-25.7,1.4h-.2c-1.3,0-2.4.2-3.5.5-7.1,1.6-11.5,6.6-11.5,13,0,3.5,1.4,6.8,3.9,9.3,2.5,2.5,5.8,3.9,9.4,3.9h1.1c5.7,0,11.5-1.1,17.3-3.4,2.9-1.1,6-1.7,9.2-1.7h0Z"/>
                <path id="shadow-3" class="cls-5" d="M150.5,53.5c-2.2.4-4.4.8-6.7,1.1-.2,3.3-1.6,6.3-3.9,8.6-2.5,2.5-5.8,3.9-9.4,3.9h-1.1c-5.7,0-11.5-1.1-17.3-3.4-2.9-1.1-6-1.7-9.2-1.7s-6.3.6-9.2,1.7c-5.8,2.2-11.6,3.4-17.3,3.4h-1.1c-3.5,0-6.9-1.4-9.4-3.9-2.3-2.3-3.7-5.4-3.9-8.6-2.3-.3-4.5-.7-6.7-1.1,0,.2,0,.3,0,.5,0,5.3,2.1,10.2,5.8,14,3.8,3.8,8.8,5.8,14.1,5.8h1.1c6.5,0,13.1-1.3,19.7-3.8,2.2-.8,4.5-1.3,6.8-1.3s4.6.4,6.8,1.3c6.5,2.5,13.2,3.8,19.7,3.8h1.1c5.3,0,10.3-2.1,14.1-5.8,3.7-3.7,5.8-8.7,5.8-14h0c0-.2,0-.3,0-.5h0Z"/>
                <path id="outline-4" class="cls-4" d="M130.6,73.9h-1.1c-6.5,0-13.2-1.3-19.7-3.8-2.2-.8-4.4-1.3-6.8-1.3s-4.6.4-6.8,1.3c-6.5,2.5-13.2,3.8-19.7,3.8h-1.1c-5.3,0-10.4-2.1-14.2-5.9-3.7-3.7-5.8-8.7-5.9-14,0-9.6,6.5-17.3,16.7-19.6,1.4-.3,2.9-.5,4.5-.6,8.7-1,17.6-1.4,26.3-1.4s17.6.5,26.3,1.4c1.7,0,3.1.3,4.5.6,10.2,2.3,16.8,10,16.7,19.6h0c0,5.3-2.1,10.3-5.9,14-3.8,3.8-8.8,5.9-14.2,5.9h0ZM103,62c3.2,0,6.3.6,9.2,1.7,5.8,2.2,11.6,3.3,17.2,3.3h1.1c3.5,0,6.8-1.4,9.3-3.9,2.5-2.5,3.8-5.8,3.9-9.2,0-6.4-4.3-11.3-11.4-12.9-1-.2-2.2-.4-3.5-.4h-.2c-8.5-1-17.2-1.4-25.7-1.4s-17.2.5-25.7,1.4h-.2c-1.3,0-2.4.2-3.5.5-7.1,1.6-11.5,6.6-11.4,12.9,0,3.5,1.4,6.8,3.9,9.2,2.5,2.5,5.8,3.9,9.3,3.9h1.1c5.7,0,11.5-1.1,17.2-3.4,2.9-1.1,6.1-1.7,9.2-1.7h0Z"/>
              </g>
            </g>
            <g id="monitor">
              <path class="cls-21" d="M259.1,145.2h-117.5c-2.2,0-4-1.8-4-4V62.2c0-2.2,1.8-4,4-4h117.5c2.2,0,4,1.8,4,4v79c0,2.2-1.8,4-4,4h0Z"/>
              <path class="cls-15" d="M263.1,62.2v1.8h-111.4c-4.6,0-8.4,3.6-8.7,8.2l-4.7,71.4c-.5-.7-.7-1.4-.7-2.3V62.2c0-2.2,1.8-4,4-4h117.5c2.2,0,4,1.8,4,4h0Z"/>
              <path class="cls-15" d="M244.2,83.6v1.3h-77.9c-3.2,0-5.9,2.5-6.1,5.7l-2.9,43.7c0,.4-.6.4-.6,0-.2-14.8-.3-50.6-.3-50.6,0-1.5,1.3-2.8,2.8-2.8h82.1c1.5,0,2.8,1.3,2.8,2.8h0Z"/>
              <path class="cls-12" d="M263.1,111.3v28.9c0,2.8-2.3,5-5.1,5h-115.3c-2.8,0-5.1-2.2-5.1-5v-13.3c75.9,7.6,110.2-4.8,125.5-15.7Z"/>
              <path class="cls-4" d="M259.1,145.2h-117.5c-2.2,0-4-1.8-4-4V62.2c0-2.2,1.8-4,4-4h117.5c2.2,0,4,1.8,4,4v79c0,2.2-1.8,4-4,4h0Z"/>
              <path class="cls-21" d="M240.6,135.6h-80.5c-2,0-3.6-1.6-3.6-3.6v-47.7c0-2,1.6-3.6,3.6-3.6h80.5c2,0,3.6,1.6,3.6,3.6v47.7c0,2-1.6,3.6-3.6,3.6h0Z"/>
              <path class="cls-12" d="M244.2,111.3v20.7c0,2-1.6,3.6-3.6,3.6h-80.5c-2,0-3.6-1.6-3.6-3.6v-9.5c53,5.4,77-3.4,87.7-11.2h0Z"/>
              <path class="cls-4" d="M240.6,135.6h-80.5c-2,0-3.6-1.6-3.6-3.6v-47.7c0-2,1.6-3.6,3.6-3.6h80.5c2,0,3.6,1.6,3.6,3.6v47.7c0,2-1.6,3.6-3.6,3.6h0Z"/>
              <path class="cls-8" d="M245.6,131.6v2.1c0,3-2.4,5.4-5.4,5.4h-79.7c-3,0-5.4-2.4-5.4-5.4v-2.1c0,3,2.4,5.4,5.4,5.4h79.7c3,0,5.4-2.4,5.4-5.4Z"/>
              <polyline class="cls-21" points="212.8 119.1 212.8 166.5 187.9 166.5 187.9 119.1"/>
              <path class="cls-12" d="M212.8,139.9v26.6h-24.9v-22.2c12.8.9,20.4-1.3,24.9-4.4h0Z"/>
              <polyline class="cls-4" points="212.8 119.1 212.8 166.5 187.9 166.5 187.9 119.1"/>
              <g>
                <path class="cls-19" d="M177.4,94.3h-.4c-.4,0-.6-.3-.6-.6v-4.8c0-.4.3-.6.6-.6h.4c.4,0,.6.3.6.6v4.8c0,.4-.3.6-.6.6Z"/>
                <path class="cls-19" d="M181.3,94.3h-.4c-.4,0-.6-.3-.6-.6v-4.8c0-.4.3-.6.6-.6h.4c.4,0,.6.3.6.6v4.8c0,.4-.3.6-.6.6Z"/>
                <path class="cls-19" d="M185.2,94.3h-.4c-.4,0-.6-.3-.6-.6v-4.8c0-.4.3-.6.6-.6h.4c.4,0,.6.3.6.6v4.8c0,.4-.3.6-.6.6Z"/>
                <path class="cls-19" d="M189.2,94.3h-.4c-.4,0-.6-.3-.6-.6v-4.8c0-.4.3-.6.6-.6h.4c.4,0,.6.3.6.6v4.8c0,.4-.3.6-.6.6Z"/>
                <path class="cls-19" d="M193.1,94.3h-.4c-.4,0-.6-.3-.6-.6v-4.8c0-.4.3-.6.6-.6h.4c.4,0,.6.3.6.6v4.8c0,.4-.3.6-.6.6Z"/>
                <path class="cls-19" d="M197,94.3h-.4c-.4,0-.6-.3-.6-.6v-4.8c0-.4.3-.6.6-.6h.4c.4,0,.6.3.6.6v4.8c0,.4-.3.6-.6.6Z"/>
                <path class="cls-19" d="M201,94.3h-.4c-.4,0-.6-.3-.6-.6v-4.8c0-.4.3-.6.6-.6h.4c.4,0,.6.3.6.6v4.8c0,.4-.3.6-.6.6Z"/>
                <path class="cls-19" d="M204.9,94.3h-.4c-.4,0-.6-.3-.6-.6v-4.8c0-.4.3-.6.6-.6h.4c.4,0,.6.3.6.6v4.8c0,.4-.3.6-.6.6Z"/>
                <path class="cls-19" d="M208.9,94.3h-.4c-.4,0-.6-.3-.6-.6v-4.8c0-.4.3-.6.6-.6h.4c.4,0,.6.3.6.6v4.8c0,.4-.3.6-.6.6Z"/>
                <path class="cls-19" d="M212.8,94.3h-.4c-.4,0-.6-.3-.6-.6v-4.8c0-.4.3-.6.6-.6h.4c.4,0,.6.3.6.6v4.8c0,.4-.3.6-.6.6Z"/>
                <path class="cls-19" d="M216.7,94.3h-.4c-.4,0-.6-.3-.6-.6v-4.8c0-.4.3-.6.6-.6h.4c.4,0,.6.3.6.6v4.8c0,.4-.3.6-.6.6Z"/>
                <path class="cls-19" d="M220.7,94.3h-.4c-.4,0-.6-.3-.6-.6v-4.8c0-.4.3-.6.6-.6h.4c.4,0,.6.3.6.6v4.8c0,.4-.3.6-.6.6Z"/>
                <path class="cls-19" d="M224.6,94.3h-.4c-.4,0-.6-.3-.6-.6v-4.8c0-.4.3-.6.6-.6h.4c.4,0,.6.3.6.6v4.8c0,.4-.3.6-.6.6Z"/>
                <path class="cls-19" d="M228.5,94.3h-.4c-.4,0-.6-.3-.6-.6v-4.8c0-.4.3-.6.6-.6h.4c.4,0,.6.3.6.6v4.8c0,.4-.3.6-.6.6Z"/>
              </g>
              <path class="cls-21" d="M237.3,163.5v3.5h-73.9v-3.5c0-2.2,1.4-4,3.2-4h67.5c1.8,0,3.2,1.8,3.2,4Z"/>
              <path class="cls-12" d="M237.3,163.5v3.5h-73.9v-3.5c0-2.2,1.4-4,3.2-4h67.5c1.8,0,3.2,1.8,3.2,4Z"/>
              <path class="cls-4" d="M237.3,163.5v3.5h-73.9v-3.5c0-2.2,1.4-4,3.2-4h67.5c1.8,0,3.2,1.8,3.2,4Z"/>
            </g>
          </g>
        </g>
      </g>
    </g>
  </g>
</svg>