<?xml version="1.0" encoding="UTF-8"?>
<svg id="Layer_2" xmlns="http://www.w3.org/2000/svg" xmlns:xlink="http://www.w3.org/1999/xlink" viewBox="0 0 258.232 71.96">
  <defs>
    <linearGradient id="linear-gradient" x1="52.671" y1="120.399" x2="203.678" y2="-30.608" gradientUnits="userSpaceOnUse">
      <stop offset="0" stop-color="#48d7d3"/>
      <stop offset=".055" stop-color="#4fd6cf"/>
      <stop offset=".137" stop-color="#63d4c4"/>
      <stop offset=".237" stop-color="#85d0b2"/>
      <stop offset=".35" stop-color="#b3cc99"/>
      <stop offset=".473" stop-color="#eec679"/>
      <stop offset=".501" stop-color="#fdc572"/>
      <stop offset=".504" stop-color="#fbc373"/>
      <stop offset=".678" stop-color="#bf82ae"/>
      <stop offset=".825" stop-color="#9452da"/>
      <stop offset=".937" stop-color="#7935f4"/>
      <stop offset="1" stop-color="#6f2aff"/>
    </linearGradient>
  </defs>
  <g id="Layer_1-2" data-name="Layer_1">
    <path d="M4.112,50.844c-1.176,0-1.694-.518-1.694-1.694v-30.504c0-1.177.517-1.694,1.694-1.694h7.295c1.176,0,1.694.518,1.694,1.694v23.302h6.448v-7.626c0-1.177.517-1.694,1.695-1.694h6.824c1.176,0,1.694.518,1.694,1.694v14.829c0,1.177-.517,1.694-1.694,1.694H4.112ZM40.821,50.844c-1.176,0-1.694-.518-1.694-1.694v-30.504c0-1.177.517-1.694,1.694-1.694h21.837c1.176,0,1.695.518,1.695,1.694v5.508c0,1.177-.518,1.695-1.695,1.695h-12.989v3.624h9.177c1.176,0,1.694.518,1.694,1.695v5.037c0,1.177-.517,1.695-1.694,1.695h-9.177v4.048h12.989c1.176,0,1.695.518,1.695,1.695v5.508c0,1.177-.518,1.694-1.695,1.694h-21.837ZM81.718,50.844c-1.223,0-1.929-.377-2.4-1.553l-4.612-11.533c-1.13-2.824-1.506-3.719-1.506-6.684v-12.428c0-1.177.517-1.694,1.694-1.694h7.483c1.176,0,1.836.518,1.836,1.694v12.993c0,.659.141,1.224.377,1.93l2.212,6.591c.188.612.377.8.894.8h.518c.517,0,.706-.189.894-.8l2.212-6.638c.235-.706.377-1.271.377-1.93v-12.946c0-1.177.517-1.694,1.694-1.694h7.389c1.223,0,1.695.518,1.695,1.694v12.428c0,2.965-.377,3.86-1.506,6.684l-4.613,11.533c-.47,1.177-1.176,1.553-2.4,1.553h-12.237ZM113.956,50.844c-1.176,0-1.694-.518-1.694-1.694v-30.504c0-1.177.517-1.694,1.694-1.694h21.837c1.176,0,1.695.518,1.695,1.694v5.508c0,1.177-.518,1.695-1.695,1.695h-12.989v3.624h9.177c1.176,0,1.694.518,1.694,1.695v5.037c0,1.177-.517,1.695-1.694,1.695h-9.177v4.048h12.989c1.176,0,1.695.518,1.695,1.695v5.508c0,1.177-.518,1.694-1.695,1.694h-21.837ZM147.736,50.844c-1.176,0-1.694-.518-1.694-1.694v-30.504c0-1.177.517-1.694,1.694-1.694h7.294c1.177,0,1.695.518,1.695,1.694v23.302h6.448v-7.626c0-1.177.518-1.694,1.695-1.694h6.824c1.176,0,1.694.518,1.694,1.694v14.829c0,1.177-.517,1.694-1.694,1.694h-23.955ZM256.116,60.501H2.116v9.343h254v-9.343ZM204.905,51.146c-11.671,0-14.541-3.859-14.541-9.6v-22.471c0-1.177.518-1.694,1.695-1.694h7.388c1.177,0,1.694.518,1.694,1.694v20.636c0,1.271.565,2.212,3.859,2.212,3.341,0,3.906-.941,3.906-2.212v-21.458c-.386-.807.22-1.454,1.695-1.409h7.153c1.869.023,1.974.357,1.694,1.409v23.294c0,5.741-2.87,9.6-14.541,9.6ZM213.123,2.576l-7.741,12.824c-.383.634.074,1.444.815,1.444h15.483c.741,0,1.198-.81.815-1.444l-7.741-12.824c-.37-.613-1.26-.613-1.63,0ZM230.608,50.836c-1.176,0-1.694-.517-1.694-1.694v-30.497c0-1.176.517-1.694,1.694-1.694h14.401c8.566,0,11.107,3.718,11.107,9.177v6.024c0,5.46-2.542,9.178-11.107,9.178h-5.412v7.813c0,1.176-.517,1.694-1.695,1.694h-7.294ZM239.503,32.858h4.235c1.836,0,2.212-1.083,2.212-2.306v-2.494c0-1.224-.377-2.307-2.212-2.307h-4.235v7.107Z" style="fill: url(#linear-gradient); stroke: #000; stroke-miterlimit: 10; stroke-width: 4.232px;"/>
  </g>
</svg>