<?xml version="1.0" encoding="UTF-8"?>
<svg id="Layer_2" xmlns="http://www.w3.org/2000/svg" viewBox="0 0 362.65 953.112">
  <g id="Layer_2-2" data-name="Layer_2">
    <g id="_x2018_ëîé_x5F_2">
      <g>
        <g>
          <rect x="271.987" y="930.446" width="22.666" height="22.666" style="fill: #dc143c;"/>
          <rect x="67.997" y="930.446" width="22.666" height="22.666" style="fill: #dc143c;"/>
          <rect y="930.446" width="22.666" height="22.666" style="fill: #dc143c;"/>
          <rect x="22.666" y="907.78" width="22.666" height="22.666" style="fill: #dc143c;"/>
          <rect x="90.662" y="885.115" width="22.666" height="45.331" style="fill: #dc143c;"/>
          <rect x="45.331" y="885.115" width="22.666" height="22.666" style="fill: #dc143c;"/>
          <path d="M22.666,862.449h45.331v-113.328H22.666v22.666H0v67.997h22.666v22.666ZM22.666,794.452h22.666v22.666h-22.666v-22.666Z" style="fill: #dc143c;"/>
          <polygon points="249.322 794.452 226.656 794.452 226.656 817.118 203.991 817.118 203.991 839.784 181.325 839.784 181.325 862.449 158.659 862.449 158.659 885.115 203.991 885.115 203.991 862.449 226.656 862.449 226.656 839.784 249.322 839.784 249.322 930.446 271.987 930.446 271.987 817.118 249.322 817.118 249.322 794.452" style="fill: #dc143c;"/>
          <polygon points="158.659 749.121 158.659 839.784 181.325 839.784 181.325 817.118 203.991 817.118 203.991 794.452 226.656 794.452 226.656 771.787 249.322 771.787 249.322 794.452 271.987 794.452 271.987 817.118 294.653 817.118 294.653 839.784 317.319 839.784 317.319 817.118 339.984 817.118 339.984 794.452 362.65 794.452 362.65 749.121 158.659 749.121" style="fill: #dc143c;"/>
          <rect x="90.662" y="749.121" width="45.331" height="113.328" style="fill: #dc143c;"/>
          <rect x="45.331" y="703.79" width="22.666" height="22.666" style="fill: #dc143c;"/>
          <rect x="67.997" y="681.124" width="135.994" height="22.666" style="fill: #dc143c;"/>
          <rect x="203.991" y="658.459" width="22.666" height="22.666" style="fill: #dc143c;"/>
        </g>
        <g>
          <rect x="271.987" y="271.987" width="22.666" height="22.666" style="fill: #dc143c;"/>
          <rect x="67.997" y="271.987" width="22.666" height="22.666" style="fill: #dc143c;"/>
          <rect y="271.987" width="22.666" height="22.666" style="fill: #dc143c;"/>
          <rect x="22.666" y="249.322" width="22.666" height="22.666" style="fill: #dc143c;"/>
          <rect x="90.662" y="226.656" width="22.666" height="45.331" style="fill: #dc143c;"/>
          <rect x="45.331" y="226.656" width="22.666" height="22.666" style="fill: #dc143c;"/>
          <path d="M22.666,203.991h45.331v-113.328H22.666v22.666H0v67.997h22.666v22.666ZM22.666,135.994h22.666v22.666h-22.666v-22.666Z" style="fill: #dc143c;"/>
          <polygon points="249.322 135.994 226.656 135.994 226.656 158.659 203.991 158.659 203.991 181.325 181.325 181.325 181.325 203.991 158.659 203.991 158.659 226.656 203.991 226.656 203.991 203.991 226.656 203.991 226.656 181.325 249.322 181.325 249.322 271.987 271.987 271.987 271.987 158.659 249.322 158.659 249.322 135.994" style="fill: #dc143c;"/>
          <polygon points="158.659 90.662 158.659 181.325 181.325 181.325 181.325 158.659 203.991 158.659 203.991 135.994 226.656 135.994 226.656 113.328 249.322 113.328 249.322 135.994 271.987 135.994 271.987 158.659 294.653 158.659 294.653 181.325 317.319 181.325 317.319 158.659 339.984 158.659 339.984 135.994 362.65 135.994 362.65 90.662 158.659 90.662" style="fill: #dc143c;"/>
          <rect x="90.662" y="90.662" width="45.331" height="113.328" style="fill: #dc143c;"/>
          <rect x="45.331" y="45.331" width="22.666" height="22.666" style="fill: #dc143c;"/>
          <rect x="67.997" y="22.666" width="135.994" height="22.666" style="fill: #dc143c;"/>
          <rect x="203.991" width="22.666" height="22.666" style="fill: #dc143c;"/>
        </g>
        <g>
          <rect x="271.987" y="601.217" width="22.666" height="22.666" style="fill: #dc143c;"/>
          <rect x="67.997" y="601.217" width="22.666" height="22.666" style="fill: #dc143c;"/>
          <rect y="601.217" width="22.666" height="22.666" style="fill: #dc143c;"/>
          <rect x="22.666" y="578.551" width="22.666" height="22.666" style="fill: #dc143c;"/>
          <rect x="90.662" y="555.886" width="22.666" height="45.331" style="fill: #dc143c;"/>
          <rect x="45.331" y="555.886" width="22.666" height="22.666" style="fill: #dc143c;"/>
          <path d="M22.666,533.22h45.331v-113.328H22.666v22.666H0v67.997h22.666v22.666ZM22.666,465.223h22.666v22.666h-22.666v-22.666Z" style="fill: #dc143c;"/>
          <polygon points="249.322 465.223 226.656 465.223 226.656 487.889 203.991 487.889 203.991 510.554 181.325 510.554 181.325 533.22 158.659 533.22 158.659 555.886 203.991 555.886 203.991 533.22 226.656 533.22 226.656 510.554 249.322 510.554 249.322 601.217 271.987 601.217 271.987 487.889 249.322 487.889 249.322 465.223" style="fill: #dc143c;"/>
          <polygon points="158.659 419.892 158.659 510.554 181.325 510.554 181.325 487.889 203.991 487.889 203.991 465.223 226.656 465.223 226.656 442.558 249.322 442.558 249.322 465.223 271.987 465.223 271.987 487.889 294.653 487.889 294.653 510.554 317.319 510.554 317.319 487.889 339.984 487.889 339.984 465.223 362.65 465.223 362.65 419.892 158.659 419.892" style="fill: #dc143c;"/>
          <rect x="90.662" y="419.892" width="45.331" height="113.328" style="fill: #dc143c;"/>
          <rect x="45.331" y="374.561" width="22.666" height="22.666" style="fill: #dc143c;"/>
          <rect x="67.997" y="351.895" width="135.994" height="22.666" style="fill: #dc143c;"/>
          <rect x="203.991" y="329.229" width="22.666" height="22.666" style="fill: #dc143c;"/>
        </g>
      </g>
    </g>
  </g>
</svg>