<?xml version="1.0" encoding="UTF-8"?>
<svg id="Layer_2" xmlns="http://www.w3.org/2000/svg" viewBox="0 0 568.273 780.414">
  <g id="_x31_500_x__x_1500_px_Geometric_Logo_4">
    <g id="Text">
      <g>
        <g id="Shape">
          <path d="M568.273,279.205H.144v-94.511h568.13v94.511ZM7.144,272.205h554.13v-80.511H7.144v80.511Z" style="fill: #1d1d1b;"/>
        </g>
        <g id="Line">
          <path d="M100.983,304.4c-.906,0-1.812-.35-2.498-1.048-1.354-1.379-1.333-3.596.046-4.95l186.812-183.396,185.104,183.156c1.374,1.359,1.386,3.576.026,4.95-1.359,1.375-3.575,1.386-4.95.026l-180.2-178.303-181.889,178.563c-.682.669-1.567,1.002-2.452,1.002Z" style="fill: #1d1d1b;"/>
        </g>
        <g id="Line-2" data-name="Line">
          <path d="M212.409,278.073c-.915,0-1.829-.357-2.517-1.067-1.343-1.39-1.306-3.605.084-4.949l76.414-73.886,74.284,73.502c1.374,1.359,1.386,3.576.026,4.95-1.359,1.375-3.575,1.386-4.95.026l-69.417-68.686-71.492,69.126c-.679.657-1.557.984-2.433.984Z" style="fill: #1d1d1b;"/>
        </g>
        <g id="Line-3" data-name="Line">
          <path d="M4.732,275.662c-.927,0-1.851-.365-2.539-1.089-1.331-1.402-1.273-3.617.128-4.948L286.169,0l280.869,269.056c1.396,1.337,1.443,3.553.106,4.948-1.339,1.396-3.555,1.442-4.948.106L286.149,9.674,7.142,274.7c-.677.643-1.544.962-2.409.962Z" style="fill: #1d1d1b;"/>
        </g>
        <g id="Shape-2" data-name="Shape">
          <path d="M568.13,595.72H0v-94.512h568.13v94.512ZM7,588.72h554.13v-80.512H7v80.512Z" style="fill: #1d1d1b;"/>
        </g>
        <g id="Line-4" data-name="Line">
          <path d="M285.2,665.407l-186.812-183.396c-1.379-1.354-1.399-3.57-.046-4.95,1.355-1.38,3.571-1.399,4.95-.046l181.889,178.563,180.2-178.304c1.375-1.359,3.591-1.347,4.95.026,1.359,1.374,1.348,3.59-.026,4.95l-185.104,183.155Z" style="fill: #1d1d1b;"/>
        </g>
        <g id="Line-5" data-name="Line">
          <path d="M286.247,582.243l-76.413-73.886c-1.39-1.344-1.427-3.56-.084-4.949,1.345-1.39,3.56-1.426,4.949-.084l71.491,69.128,69.417-68.688c1.375-1.359,3.59-1.347,4.95.026,1.359,1.374,1.348,3.59-.026,4.95l-74.284,73.502Z" style="fill: #1d1d1b;"/>
        </g>
        <g id="Line-6" data-name="Line">
          <path d="M286.026,780.414L2.179,510.79c-1.401-1.332-1.459-3.547-.128-4.948s3.547-1.459,4.948-.128l279.008,265.026,276.047-264.437c1.396-1.338,3.611-1.289,4.948.106s1.29,3.611-.106,4.948l-280.869,269.056Z" style="fill: #1d1d1b;"/>
        </g>
        <g id="Line-7" data-name="Line">
          <path d="M456.016,405.838H112.433c-1.104,0-2-.896-2-2s.896-2,2-2h343.583c1.104,0,2,.896,2,2s-.896,2-2,2Z" style="fill: #1d1d1b;"/>
        </g>
        <g>
          <path d="M162.486,328.908h7.201v44.14h27.29v6.265h-34.491v-50.404Z"/>
          <path d="M248.313,373.047v6.265h-36.579v-50.404h35.571v6.265h-28.37v15.481h25.273v6.121h-25.273v16.273h29.378Z"/>
          <path d="M309.515,328.908l-22.106,50.404h-7.129l-22.178-50.404h7.777l18.146,41.403,18.289-41.403h7.201Z"/>
          <path d="M358.977,373.047v6.265h-36.579v-50.404h35.571v6.265h-28.37v15.481h25.273v6.121h-25.273v16.273h29.378Z"/>
          <path d="M377.117,328.908h7.201v44.14h27.29v6.265h-34.491v-50.404Z"/>
        </g>
        <g>
          <path d="M232.443,442.493v-14.326h3.6v14.183c0,5.579,2.556,8.099,7.091,8.099s7.127-2.52,7.127-8.099v-14.183h3.492v14.326c0,7.308-3.996,11.159-10.655,11.159-6.623,0-10.654-3.852-10.654-11.159Z"/>
          <path d="M335.473,436.95c0,5.472-3.96,8.783-10.511,8.783h-6.228v7.631h-3.6v-25.197h9.827c6.551,0,10.511,3.312,10.511,8.783ZM331.873,436.95c0-3.6-2.412-5.651-7.02-5.651h-6.119v11.303h6.119c4.607,0,7.02-2.052,7.02-5.651Z"/>
        </g>
      </g>
    </g>
  </g>
</svg>